# xmcd
#
# Track frame offsets:
# 150
# 21898
# 39150
# 54650
# 70158
# 87170
# 101373
# 119235
# 137898
# 159850
# 178765
# 198688
#
# Disc length: 3305 seconds
#
# Revision: 0
# Processed by: cddbd v1.5.1PL0 Copyright (c) Steve Scherf et al.
# Submitted via: Coin'sHifi 0.9 coinshifi@hotmail.fr
#
DISCID=a40ce70c
DTITLE=Zazie - Rodéo
DYEAR=2004
DGENRE=blues
TTITLE0=La Dolce Vita
TTITLE1=J'aime, J'aime Pas
TTITLE2=Excuse Moi
TTITLE3=Toc Toc Toc
TTITLE4=La Pluie Et Le Beau Temps
TTITLE5=Lola Majeure
TTITLE6=Rodéo
TTITLE7=Slow
TTITLE8=Doolididom
TTITLE9=Sauver Le Monde
TTITLE10=Oui
TTITLE11=J'arrive
EXTD=
EXTT0=
EXTT1=
EXTT2=
EXTT3=
EXTT4=
EXTT5=
EXTT6=
EXTT7=
EXTT8=
EXTT9=
EXTT10=
EXTT11=
PLAYORDER=
